<svg xmlns="http://www.w3.org/2000/svg" width="282.975" height="48.527" viewBox="0 0 282.975 48.527"><defs><style>.a{fill:#e9041e;}.b{fill:#fff;}</style></defs><g transform="translate(-34.638 -18.268)"><path d="M34.638,18.268h13.65v3.569h-9.1v2.637h4.223c3.967,0,6.137,1.726,6.137,4.876,0,3.314-2.5,5.25-6.744,5.25H34.638ZM42.5,31.287c1.54,0,2.38-.63,2.38-1.8s-.793-1.726-2.38-1.726H39.188v3.523Z"/><path d="M66.792,18.268,60.026,30.891c-1.447,2.729-3.571,4.129-6.02,4.129a7.867,7.867,0,0,1-2.894-.606l1.1-3.407a5.693,5.693,0,0,0,1.633.28,2.45,2.45,0,0,0,2.17-1.26L49.666,18.268h4.877l3.8,7.886,3.944-7.886Z"/><path d="M83.639,30.937V37.89H79.416V34.6H68.963v3.29H64.716V30.937H65.3c2.077-.046,2.613-3.267,2.777-7.63l.186-5.039h13.16V30.937Zm-12.95,0h6.183V21.931h-4.69l-.07,1.773C72,26.9,71.645,29.56,70.689,30.937Z"/><path d="M101.373,18.268,94.606,30.891c-1.446,2.729-3.57,4.129-6.02,4.129a7.862,7.862,0,0,1-2.893-.606l1.1-3.407a5.687,5.687,0,0,0,1.633.28,2.45,2.45,0,0,0,2.17-1.26L84.247,18.268h4.876l3.8,7.886,3.944-7.886Z"/><path d="M127.109,30.937V37.89h-4.246V34.6h-20.02V18.268h4.55V30.937h4.27V18.268h4.55V30.937h4.223V18.268h4.55V30.937Z"/><path d="M141.973,31.03V34.6H128.86V18.268h12.81v3.569h-8.236v2.754h7.257v3.453h-7.257V31.03Z"/><path d="M157.257,31.03V34.6H144.144V18.268h12.81v3.569h-8.237v2.754h7.257v3.453h-7.257V31.03Z"/><path d="M159.8,24.861h11.667V27.5H159.8Z"/><path d="M94.607,46.962A8.228,8.228,0,0,1,86,55.455a8.7,8.7,0,0,1-7.07-3.08l2.917-2.659a4.962,4.962,0,0,0,3.92,1.912A3.917,3.917,0,0,0,89.707,48.6H83.8V45.189H89.66a3.874,3.874,0,0,0-3.9-2.894,4.961,4.961,0,0,0-3.92,1.914l-2.917-2.66A8.7,8.7,0,0,1,86,38.469,8.228,8.228,0,0,1,94.607,46.962Z"/><path d="M109.564,42.459H104.57v12.67h-4.549V42.459H95V38.8h14.56Z"/><path d="M109.938,46.962c0-4.9,3.85-8.493,9.077-8.493s9.076,3.593,9.076,8.493-3.85,8.493-9.076,8.493S109.938,51.862,109.938,46.962Zm13.487,0a4.417,4.417,0,1,0-8.82,0,4.417,4.417,0,1,0,8.82,0Z"/><path d="M148.952,50.462c0,2.87-2.287,4.667-6.487,4.667h-8.377V38.8h7.934c3.9,0,6.183,1.54,6.183,4.246a3.806,3.806,0,0,1-2.217,3.547A3.847,3.847,0,0,1,148.952,50.462Zm-10.314-5.133h2.94q1.96,0,1.96-1.61c0-1.05-.653-1.61-1.96-1.61h-2.94Zm5.647,4.783c0-1.12-.677-1.656-2.007-1.656h-3.64v3.359h3.64C143.608,51.815,144.285,51.232,144.285,50.112Z"/><path d="M165.121,49.319c0,3.826-2.637,5.81-6.883,5.81h-7.723V38.8h4.55V44h3.78C162.811,44,165.121,45.749,165.121,49.319Zm-4.643.093c0-1.54-.98-2.123-2.544-2.123h-2.869v4.526h2.869A2.283,2.283,0,0,0,160.478,49.412Zm6.44-10.616h4.55V55.129h-4.55Z"/><path d="M221.2,31a4.132,4.132,0,0,1,4.456,4.261c0,2.574-1.719,4.056-4.456,4.056h-5.446v4.209h-2.32V31Zm.133,6.247a1.858,1.858,0,0,0,1.954-1.953,2.045,2.045,0,0,0-2.087-2.222h-5.446v4.175Z"/><path d="M234.259,43.878c-3.99,0-7.3-2.654-7.3-6.629,0-3.924,3.307-6.63,7.3-6.63,4.008,0,7.262,2.706,7.262,6.63,0,3.975-3.254,6.629-7.262,6.629m0-11.12a4.558,4.558,0,0,0-4.9,4.491c0,2.588,1.9,4.507,4.9,4.507,2.972,0,4.857-1.934,4.857-4.507,0-2.522-1.885-4.491-4.857-4.491"/><path d="M251.14,43.862c-4.192,0-7.348-2.655-7.348-6.629,0-3.908,3.2-6.614,7.348-6.614a9.281,9.281,0,0,1,5.828,1.869l-1.239,1.84a7.156,7.156,0,0,0-4.521-1.537c-3.059,0-4.962,1.936-4.962,4.442,0,2.589,1.921,4.456,4.994,4.456a7.381,7.381,0,0,0,4.59-1.5l1.237,1.836a9.538,9.538,0,0,1-5.927,1.837"/><path d="M277.123,40.487l-1.435,3.041h-2.5L279.278,31h2.437l6.112,12.526h-2.506l-1.434-3.041Zm.969-2.036h4.827l-2.407-5.078Z"/><path d="M300.115,43.528V38.169h-8.2v5.359h-2.322V31h2.322v5.112h8.2V31h2.323V43.528Z"/><path d="M305.874,43.528V31H308.2v5.845L314.491,31h2.854l-6.477,6.031,6.745,6.495h-3.122L308.2,37.449v6.079Z"/><path d="M267.447,35.594h-5.438V32.953h8.96V30.992H259.687V43.506h7.76c2.735,0,4.618-1.487,4.618-3.955,0-2.57-1.883-3.957-4.618-3.957m.133,5.843h-5.571V37.665h5.571c1.456,0,2.284.768,2.284,1.886,0,1.234-.657,1.886-2.284,1.886"/><path d="M257.22,64.3v.133a2.381,2.381,0,0,1-.617,1.708,2.146,2.146,0,0,1-1.641.655,2.328,2.328,0,0,1-1.549-4.017A2.264,2.264,0,0,1,255,62.2a2.293,2.293,0,0,1,1.9,1.005l-.638.394a1.645,1.645,0,0,0-1.307-.629,1.555,1.555,0,0,0-1.134.434,1.473,1.473,0,0,0-.445,1.1,1.494,1.494,0,0,0,.434,1.11,1.564,1.564,0,0,0,1.145.43,1.374,1.374,0,0,0,1.416-.97h-1.561V64.3Z"/><path d="M262.271,66.671H261.5l-.906-1.588h-1.723v1.588h-.673V62.34h2.8a1.1,1.1,0,0,1,.877.373,1.465,1.465,0,0,1,.327,1,1.192,1.192,0,0,1-.859,1.317Zm-1.384-2.358c.409,0,.613-.2.613-.584q0-.619-.652-.619h-1.981v1.2Z"/><path d="M267.573,64.5a2.238,2.238,0,0,1-.727,1.729,2.2,2.2,0,0,1-1.549.571,2.324,2.324,0,1,1,2.276-2.3m-.7,0a1.48,1.48,0,0,0-.44-1.1,1.716,1.716,0,0,0-2.279,0,1.614,1.614,0,0,0-.009,2.212,1.58,1.58,0,0,0,1.152.426,1.564,1.564,0,0,0,1.144-.426,1.5,1.5,0,0,0,.432-1.114"/><path d="M272.538,65.247a1.358,1.358,0,0,1-.547,1.115,2.7,2.7,0,0,1-2.935,0,1.358,1.358,0,0,1-.547-1.115V62.34h.674v2.74q0,.958,1.343.959t1.338-.959V62.34h.674Z"/><path d="M276.478,62.34a1.1,1.1,0,0,1,.877.373,1.467,1.467,0,0,1,.327,1,1.405,1.405,0,0,1-.341,1.011,1.283,1.283,0,0,1-.977.357h-2.01v1.588h-.673V62.34Zm-.1,1.973c.408,0,.612-.2.612-.584q0-.619-.652-.619h-1.981v1.2Z"/><path d="M183.689,63.411a2.659,2.659,0,0,0-1.472-.438c-.772,0-1.156.17-1.156.512,0,.2.144.333.433.394q.593.063,1.185.133a2.589,2.589,0,0,1,1.212.38,1.08,1.08,0,0,1,.4.92,1.274,1.274,0,0,1-.5,1.076,2.357,2.357,0,0,1-1.443.379,2.976,2.976,0,0,1-2.135-.759l.366-.6a2.581,2.581,0,0,0,1.755.622,1.81,1.81,0,0,0,.906-.187.558.558,0,0,0,.321-.5.5.5,0,0,0-.394-.485,2.721,2.721,0,0,0-.682-.1q-.72-.043-.884-.063a1.729,1.729,0,0,1-.946-.346.976.976,0,0,1-.3-.778,1.161,1.161,0,0,1,.488-.982,2.258,2.258,0,0,1,1.367-.361,2.782,2.782,0,0,1,1.9.633Z"/><path d="M189.48,64.5a2.24,2.24,0,0,1-.726,1.729,2.2,2.2,0,0,1-1.549.571,2.324,2.324,0,1,1,2.275-2.3m-.7,0a1.477,1.477,0,0,0-.44-1.1,1.716,1.716,0,0,0-2.279,0,1.476,1.476,0,0,0-.443,1.1,1.492,1.492,0,0,0,.434,1.114,1.582,1.582,0,0,0,1.153.426,1.565,1.565,0,0,0,1.144-.426,1.494,1.494,0,0,0,.431-1.114"/><path d="M194.6,63.383l-.62.267a1.739,1.739,0,0,0-1.414-.691,1.622,1.622,0,0,0-1.178.424,1.619,1.619,0,0,0,0,2.219,1.64,1.64,0,0,0,1.189.423,1.709,1.709,0,0,0,1.415-.706l.58.386a2.36,2.36,0,0,1-2.01,1.076,2.2,2.2,0,0,1-2.315-2.292A2.219,2.219,0,0,1,192.52,62.2a2.4,2.4,0,0,1,2.078,1.18"/><rect width="0.674" height="4.331" transform="translate(195.549 62.34)"/><path d="M201.136,66.671h-3.729V62.34h3.6v.77h-2.925v.928h2.035v.77h-2.035V65.9h3.055Z"/><path d="M205.542,63.11h-1.657v3.561h-.674V63.11h-1.657v-.77h3.987Z"/><path d="M210.005,66.671h-3.729V62.34h3.6v.77H206.95v.928h2.036v.77H206.95V65.9h3.055Z"/><path d="M216.893,64.3v.133a2.384,2.384,0,0,1-.616,1.708,2.148,2.148,0,0,1-1.642.655,2.328,2.328,0,0,1-1.549-4.017,2.264,2.264,0,0,1,1.588-.582,2.293,2.293,0,0,1,1.9,1.005l-.637.394a1.646,1.646,0,0,0-1.308-.629,1.555,1.555,0,0,0-1.134.434,1.477,1.477,0,0,0-.445,1.1,1.494,1.494,0,0,0,.434,1.11,1.564,1.564,0,0,0,1.145.43,1.373,1.373,0,0,0,1.416-.97h-1.56V64.3Z"/><path d="M221.6,66.671h-3.728V62.34h3.6v.77h-2.924v.928h2.035v.77h-2.035V65.9H221.6Z"/><path d="M226.5,66.671H225.5l-2.356-3.611v3.611h-.673V62.34h1.009l2.353,3.606V62.34h.674Z"/><path d="M231.417,66.671h-3.729V62.34h3.6v.77h-2.925v.928H230.4v.77h-2.035V65.9h3.055Z"/><path d="M236.367,66.671h-.776l-.9-1.588h-1.723v1.588h-.673V62.34h2.8a1.1,1.1,0,0,1,.877.373,1.47,1.47,0,0,1,.326,1,1.192,1.192,0,0,1-.858,1.317Zm-1.384-2.358c.409,0,.613-.2.613-.584q0-.619-.653-.619h-1.98v1.2Z"/><path d="M241.414,66.671h-.742l-.4-.928H237.94l-.4.928H236.8l1.886-4.331h.84Zm-1.482-1.7-.821-1.918-.827,1.918Z"/><path d="M245.434,66.671h-3.351V62.34h.674V65.9h2.677Z"/><path d="M249.893,66.671h-3.728V62.34h3.6v.77H246.84v.928h2.035v.77H246.84V65.9h3.053Z"/><rect class="a" width="25.135" height="12.82" transform="translate(179.925 24.639)"/><rect width="25.135" height="12.566" transform="translate(179.925 37.208)"/><rect class="b" width="16.352" height="1.53" transform="translate(184.317 36.442)"/></g></svg>