<svg xmlns="http://www.w3.org/2000/svg" width="63" height="63" viewBox="0 0 63 63">
    <g fill="none" fill-rule="evenodd">
        <circle cx="31.5" cy="31.5" r="28.5" stroke="#FC3A30" stroke-opacity=".2" stroke-width="6"/>
        <path fill="#FC3A30" d="M31.5 28.093l7.101-7.101c.839-.839 1.284-1.18 1.887-1.31.786-.157 1.52.052 2.149.681s.838 1.363.681 2.149c-.13.603-.471 1.048-1.31 1.887L34.907 31.5l7.101 7.101c.839.839 1.18 1.284 1.31 1.887.157.786-.052 1.52-.681 2.149s-1.363.838-2.149.681c-.603-.13-1.048-.471-1.887-1.31L31.5 34.907l-7.101 7.101c-.839.839-1.284 1.18-1.887 1.31-.786.157-1.52-.052-2.149-.681s-.838-1.363-.681-2.149c.13-.603.471-1.048 1.31-1.887l7.101-7.101-7.101-7.101c-.839-.839-1.18-1.284-1.31-1.887-.157-.786.052-1.52.681-2.149s1.363-.838 2.149-.681c.603.13 1.048.471 1.887 1.31l7.101 7.101z"/>
    </g>
</svg>
