<svg xmlns="http://www.w3.org/2000/svg" width="15.022" height="13.125" viewBox="0 0 15.022 13.125"><defs><style>.a{fill:#080808;}</style></defs><path class="a" d="M13.418-11.25a4.565,4.565,0,0,1,1.436,2.168,4.288,4.288,0,0,1,0,2.329A4.554,4.554,0,0,1,13.74-4.746L8.613.469A1.521,1.521,0,0,1,7.5.937,1.521,1.521,0,0,1,6.387.469L1.26-4.746A4.554,4.554,0,0,1,.146-6.753,4.107,4.107,0,0,1,.176-9.082,4.37,4.37,0,0,1,1.582-11.25a3.806,3.806,0,0,1,1.9-.879,4.5,4.5,0,0,1,2.153.176A4.647,4.647,0,0,1,7.5-10.811a4.647,4.647,0,0,1,1.86-1.143,4.5,4.5,0,0,1,2.153-.176A3.806,3.806,0,0,1,13.418-11.25Zm-.674,5.508A3.146,3.146,0,0,0,13.491-7.1a2.863,2.863,0,0,0-.015-1.6,2.894,2.894,0,0,0-.967-1.465,2.708,2.708,0,0,0-2.007-.615,2.98,2.98,0,0,0-1.978.937L7.5-8.818,6.475-9.844A2.98,2.98,0,0,0,4.5-10.781a2.708,2.708,0,0,0-2.007.615A2.894,2.894,0,0,0,1.523-8.7a2.863,2.863,0,0,0-.015,1.6,3.146,3.146,0,0,0,.747,1.362L7.412-.527q.088.117.176,0Z" transform="translate(0.008 12.187)"/></svg>