<svg xmlns="http://www.w3.org/2000/svg" width="16.585" height="14.49" viewBox="0 0 16.585 14.49"><defs><style>.a,.b{fill:#ee3d42;}.b{stroke:#ee3d42;}</style></defs><g transform="translate(-908.992 -583.813)"><path class="a" d="M14.815-11.152A5.04,5.04,0,0,1,16.4-8.759a4.735,4.735,0,0,1,0,2.571A5.027,5.027,0,0,1,15.17-3.972L9.51,1.785a1.718,1.718,0,0,1-2.458,0L1.392-3.972A5.027,5.027,0,0,1,.163-6.188,4.534,4.534,0,0,1,.195-8.759a4.825,4.825,0,0,1,1.553-2.393,4.2,4.2,0,0,1,2.1-.97,4.964,4.964,0,0,1,2.377.194,5.13,5.13,0,0,1,2.054,1.261,5.13,5.13,0,0,1,2.054-1.261,4.964,4.964,0,0,1,2.377-.194A4.2,4.2,0,0,1,14.815-11.152Zm-.744,6.081a3.474,3.474,0,0,0,.825-1.5,3.161,3.161,0,0,0-.016-1.763,3.2,3.2,0,0,0-1.067-1.617,2.99,2.99,0,0,0-2.216-.679A3.29,3.29,0,0,0,9.413-9.6L8.281-8.468,7.149-9.6a3.29,3.29,0,0,0-2.183-1.035,2.99,2.99,0,0,0-2.216.679A3.2,3.2,0,0,0,1.683-8.338a3.161,3.161,0,0,0-.016,1.763,3.474,3.474,0,0,0,.825,1.5L8.184.686q.1.129.194,0Z" transform="translate(909 596)"/><path class="b" d="M-1622.5,576.261l-3.545,2.151-3.236-2.369-3.124,2.235-.373,1.976,2.251,3.494,4.872,4.78,6.167-6.228,1.48-2.883-1.282-2.064-1.316-1.31Z" transform="translate(2543 9)"/></g></svg>