<svg xmlns="http://www.w3.org/2000/svg" width="26" height="26" viewBox="0 0 26 26"><defs><style>.a{fill:#e9041e;}.b,.d{fill:#fff;}.c,.d{stroke:none;}</style></defs><g transform="translate(-460 -970)"><g class="a" transform="translate(460 970)"><path class="c" d="M 12.99997138977051 25.49994087219238 C 9.661111831665039 25.49994087219238 6.522091388702393 24.19972229003906 4.161161422729492 21.83879089355469 C 1.80022144317627 19.47785186767578 0.5000013709068298 16.33883094787598 0.5000013709068298 12.99997138977051 C 0.5000013709068298 9.661111831665039 1.80022144317627 6.522091388702393 4.161161422729492 4.161161422729492 C 6.522091388702393 1.80022144317627 9.661111831665039 0.5000013709068298 12.99997138977051 0.5000013709068298 C 16.33883094787598 0.5000013709068298 19.47785186767578 1.80022144317627 21.83879089355469 4.161161422729492 C 24.19972229003906 6.522091388702393 25.49994087219238 9.661111831665039 25.49994087219238 12.99997138977051 C 25.49994087219238 16.33884048461914 24.19972229003906 19.47785186767578 21.83879089355469 21.83879089355469 C 19.47785186767578 24.19972229003906 16.33884048461914 25.49994087219238 12.99997138977051 25.49994087219238 Z"/><path class="d" d="M 12.99997138977051 1.000001907348633 C 9.794660568237305 1.000001907348633 6.78120231628418 2.248210906982422 4.514711380004883 4.514711380004883 C 2.248210906982422 6.78120231628418 1.000001907348633 9.794660568237305 1.000001907348633 12.99997138977051 C 1.000001907348633 16.20528030395508 2.248210906982422 19.21874237060547 4.514711380004883 21.48523139953613 C 6.78120231628418 23.75173187255859 9.794660568237305 24.99994087219238 12.99997138977051 24.99994087219238 C 16.20528030395508 24.99994087219238 19.21874237060547 23.75173187255859 21.48523139953613 21.48523139953613 C 23.75173187255859 19.21874237060547 24.99994087219238 16.20528030395508 24.99994087219238 12.99997138977051 C 24.99994087219238 9.794660568237305 23.75173187255859 6.78120231628418 21.48523139953613 4.514711380004883 C 19.21874237060547 2.248210906982422 16.20528030395508 1.000001907348633 12.99997138977051 1.000001907348633 M 12.99997138977051 1.9073486328125e-06 C 20.17966079711914 1.9073486328125e-06 25.99994087219238 5.820281982421875 25.99994087219238 12.99997138977051 C 25.99994087219238 20.17966079711914 20.17966079711914 25.99994087219238 12.99997138977051 25.99994087219238 C 5.820281982421875 25.99994087219238 1.9073486328125e-06 20.17966079711914 1.9073486328125e-06 12.99997138977051 C 1.9073486328125e-06 5.820281982421875 5.820281982421875 1.9073486328125e-06 12.99997138977051 1.9073486328125e-06 Z"/></g><path class="b" d="M-11.667-21.484A12.545,12.545,0,0,1-5.2-19.736,13.077,13.077,0,0,1-.474-15.013,12.545,12.545,0,0,1,1.275-8.542,12.545,12.545,0,0,1-.474-2.071,13.077,13.077,0,0,1-5.2,2.651,12.545,12.545,0,0,1-11.667,4.4a12.545,12.545,0,0,1-6.471-1.748,13.077,13.077,0,0,1-4.723-4.723,12.545,12.545,0,0,1-1.748-6.471,12.545,12.545,0,0,1,1.748-6.471,13.077,13.077,0,0,1,4.723-4.723A12.545,12.545,0,0,1-11.667-21.484Zm0,2.5a10.128,10.128,0,0,0-5.219,1.409,10.525,10.525,0,0,0-3.81,3.81A10.175,10.175,0,0,0-22.1-8.516a9.9,9.9,0,0,0,1.461,5.245A4.936,4.936,0,0,1-19.6-5.255a4.861,4.861,0,0,1,2.244-1.409,6.57,6.57,0,0,1-.992-3.5,6.722,6.722,0,0,1,.887-3.418A6.5,6.5,0,0,1-15.033-16a6.623,6.623,0,0,1,3.366-.887A6.623,6.623,0,0,1-8.3-16a6.5,6.5,0,0,1,2.427,2.427,6.623,6.623,0,0,1,.887,3.366,6.662,6.662,0,0,1-.992,3.549A4.861,4.861,0,0,1-3.735-5.255,4.936,4.936,0,0,1-2.692-3.272,9.9,9.9,0,0,0-1.23-8.516a10.176,10.176,0,0,0-1.409-5.245,10.525,10.525,0,0,0-3.81-3.81A10.128,10.128,0,0,0-11.667-18.979Zm4.175,8.767a4.02,4.02,0,0,0-1.226-2.948,4.02,4.02,0,0,0-2.948-1.226,4.02,4.02,0,0,0-2.948,1.226,4.02,4.02,0,0,0-1.226,2.948,4.02,4.02,0,0,0,1.226,2.948,4.02,4.02,0,0,0,2.948,1.226A4.02,4.02,0,0,0-8.719-7.264,4.02,4.02,0,0,0-7.493-10.212ZM-18.347-.506a10.813,10.813,0,0,0,3.105,1.774,10.237,10.237,0,0,0,3.575.626,10.237,10.237,0,0,0,3.575-.626A10.813,10.813,0,0,0-4.988-.506V-1.967A2.4,2.4,0,0,0-5.457-3.4,2.2,2.2,0,0,0-6.71-4.263l-1.3-.365a6.363,6.363,0,0,1-3.653,1.1,6.363,6.363,0,0,1-3.653-1.1l-1.3.365a2.2,2.2,0,0,0-1.252.861,2.4,2.4,0,0,0-.47,1.435Z" transform="translate(484.609 991.6)"/></g></svg>