<svg width="25" height="21" version="1.1" viewBox="0 0 25 21" xmlns="http://www.w3.org/2000/svg">
 <rect x="1" y="6" width="19" height="14" rx="2" fill="none" stroke="#b1b9c2" stroke-width="2"/>
 <path d="m17.838 13.295c-3.77 0-6.838-2.982-6.838-6.647 0-3.666 3.067-6.648 6.838-6.648 3.77 0 6.837 2.982 6.837 6.648 0 3.665-3.067 6.647-6.837 6.647z" fill="#b1b9c2"/>
 <path d="m19.681 6.78-0.746 0.725v-3.71c0-0.564-0.47-1.022-1.052-1.022-0.58 0-1.052 0.458-1.052 1.022v3.738l-0.775-0.754a1.031 1.031 0 0 0-1.43 0 0.964 0.964 0 0 0 0 1.39l2.366 2.301c0.185 0.29 0.514 0.485 0.891 0.485 0.403 0 0.75-0.223 0.926-0.547l2.302-2.238a0.964 0.964 0 0 0 0-1.39 1.031 1.031 0 0 0-1.43 0z" fill="#eef1f6"/>
</svg>
